<svg xmlns="http://www.w3.org/2000/svg" viewBox="0 0 40 44">
  <path
     d="M 5.2109375,7.1269531 A 0.52255223,0.52255223 0 0 0 4.7246094,7.6484375 V 35.003906 a 0.52255223,0.52255223 0 0 0 0.6425781,0.507813 l 8.3964845,-1.966797 a 0.52255223,0.52255223 0 0 0 0.404297,-0.507813 V 30.707031 L 20.277344,29.5625 a 0.52255223,0.52255223 0 0 0 0.427734,-0.513672 v -2.384766 a 0.52255223,0.52255223 0 0 0 -0.460937,-0.519531 l -6.09375,-0.734375 v -8.167968 l 6.09375,-0.734376 a 0.52255223,0.52255223 0 0 0 0.460937,-0.519531 V 13.603516 A 0.52255223,0.52255223 0 0 0 20.277344,13.089844 L 14.167969,11.945312 V 9.6132812 A 0.52255223,0.52255223 0 0 0 13.763672,9.1054688 L 5.3671875,7.140625 a 0.52255223,0.52255223 0 0 0 -0.15625,-0.013672 z m 0.5605469,1.1796875 7.3496096,1.7207034 v 2.351562 a 0.52255223,0.52255223 0 0 0 0.427734,0.513672 l 6.109375,1.144531 v 1.488282 l -6.09375,0.734375 a 0.52255223,0.52255223 0 0 0 -0.460937,0.519531 v 9.09375 a 0.52255223,0.52255223 0 0 0 0.460937,0.519531 l 6.09375,0.734375 v 1.488281 l -6.109375,1.144532 a 0.52255223,0.52255223 0 0 0 -0.427734,0.513672 v 2.349609 l -7.3496096,1.722656 z" />
  <path
     d="M 35.103516,7.1269531 C 35.068641,7.1280429 35.033962,7.1326231 35,7.140625 l -8.400391,1.9667969 c -0.236305,0.0549 -0.403748,0.265215 -0.404297,0.5078125 v 2.3300776 l -6.109374,1.144532 c -0.247769,0.04572 -0.427636,0.261721 -0.427735,0.513672 v 2.384765 c -3.16e-4,0.265002 0.197784,0.488285 0.460938,0.519531 l 6.091797,0.734376 v 8.167968 l -6.091797,0.734375 c -0.263154,0.03125 -0.461254,0.254529 -0.460938,0.519531 v 2.384766 c 9.9e-5,0.251951 0.179966,0.467955 0.427735,0.513672 l 6.109374,1.144531 v 2.330078 c 5.49e-4,0.242598 0.167992,0.452913 0.404297,0.507813 L 35,35.511719 c 0.327791,0.07736 0.642083,-0.171017 0.642578,-0.507813 V 7.6484375 C 35.642123,7.3536873 35.398119,7.1176403 35.103516,7.1269531 Z" />
  <path
     d="m 5.2324219,7.1269531 c -0.069508,0.00208 -0.1379016,0.01802 -0.2011719,0.046875 L 2.1621094,8.4824219 c -0.1855476,0.085109 -0.3045469,0.2704734 -0.3046875,0.4746093 -7.2e-6,8.2463808 -3.3e-6,16.4919018 0,24.7382808 -6.243e-4,0.204843 0.1184961,0.39116 0.3046875,0.476563 L 5.03125,35.478516 c 0.3459527,0.158525 0.7399119,-0.09407 0.7402344,-0.47461 -0.0062,-9.117956 -0.00241,-18.237077 0,-27.3554685 C 5.7710292,7.3536871 5.5270255,7.11764 5.2324219,7.1269531 Z" />
  <path
     d="m 35.082031,7.1269531 c -0.27318,0.020012 -0.484547,0.2475722 -0.484375,0.5214844 0.0024,9.1183575 0.0053,18.2374445 0,27.3554685 9.67e-4,0.379231 0.392876,0.631173 0.738282,0.47461 l 2.86914,-1.306641 c 0.186954,-0.08483 0.306917,-0.271265 0.306641,-0.476563 -10e-6,-8.24638 -2.2e-5,-16.491902 0,-24.7382808 -4.9e-4,-0.2045904 -0.120331,-0.3900758 -0.306641,-0.4746093 l -2.86914,-1.3085938 c -0.07938,-0.036618 -0.166683,-0.052735 -0.253907,-0.046875 z m 0.560547,1.3339844 1.824219,0.8320313 c -2.1e-5,8.0224152 -1e-5,16.0439922 0,24.0664062 l -1.824219,0.832031 c 0.0045,-8.576965 0.0023,-17.153797 0,-25.7304685 z" />
  <path
     d="m 20.166016,15.464844 c -0.01567,5.96e-4 -0.03131,0.0019 -0.04687,0.0039 l -6.554688,0.791016 c -0.262379,0.03216 -0.459419,0.255189 -0.458984,0.519531 v 9.09375 c -4.35e-4,0.264342 0.196605,0.487374 0.458984,0.519531 l 6.554688,0.791016 c 0.311754,0.0381 0.586441,-0.20546 0.585937,-0.519532 V 15.988281 c 6.48e-4,-0.295518 -0.243691,-0.532774 -0.539062,-0.523437 z"
     id="path5341" />
  <path
     d="m 20.193359,15.464844 a 0.52255223,0.52255223 0 0 0 -0.533203,0.523437 v 10.675781 a 0.52255223,0.52255223 0 0 0 0.583985,0.519532 l 6.552734,-0.791016 a 0.52255223,0.52255223 0 0 0 0.458984,-0.519531 v -9.09375 A 0.52255223,0.52255223 0 0 0 26.796875,16.259766 L 20.244141,15.46875 a 0.52255223,0.52255223 0 0 0 -0.05078,-0.0039 z m 0.511719,1.111328 5.50586,0.666016 v 8.167968 l -5.50586,0.666016 z" />
  <path
     d="m 20.203125,10.25 a 0.52255223,0.52255223 0 0 0 -0.146484,0.01563 l -6.535157,1.607422 a 0.52255223,0.52255223 0 0 0 0.02734,1.019531 l 6.53711,1.22461 a 0.52255223,0.52255223 0 0 0 0.193359,0 l 6.535156,-1.22461 a 0.52255223,0.52255223 0 0 0 0.0293,-1.019531 L 20.306641,10.265625 A 0.52255223,0.52255223 0 0 0 20.203125,10.25 Z m -0.02148,1.060547 4.066406,1 -4.064453,0.761719 -4.06836,-0.761719 z" />
  <path
     d="m 20.166016,-0.40039062 c -0.07456,0.002044 -0.147813,0.020025 -0.214844,0.0527344 l -6.53711,3.21679682 c -0.178311,0.088131 -0.291127,0.2698487 -0.291015,0.46875 v 9.0410154 c -1.1e-4,0.338835 0.317316,0.588173 0.646484,0.507813 l 6.53711,-1.607422 c 0.23327,-0.05704 0.397637,-0.265719 0.398437,-0.505859 V 0.12109375 c -4.55e-4,-0.29475019 -0.244459,-0.53079721 -0.539062,-0.52148437 z" />
  <path
     d="m 20.160156,-0.40039062 a 0.52255223,0.52255223 0 0 0 -0.5,0.52148437 V 10.773438 a 0.52255223,0.52255223 0 0 0 0.396485,0.505859 l 6.537109,1.607422 a 0.52255223,0.52255223 0 0 0 0.648438,-0.507813 V 3.3378906 a 0.52255223,0.52255223 0 0 0 -0.292969,-0.46875 l -6.53711,-3.21679685 a 0.52255223,0.52255223 0 0 0 -0.251953,-0.0527344 z m 0.544922,1.36132812 5.492188,2.7011719 v 8.0527346 l -5.492188,-1.351563 z" />
  <path
     d="m 13.615234,29.751953 c -0.276264,0.01608 -0.492089,0.244753 -0.492187,0.521485 v 9.042968 c -1.12e-4,0.198901 0.112704,0.380619 0.291015,0.46875 L 19.951172,43 c 0.347366,0.171519 0.754057,-0.08135 0.753906,-0.46875 V 31.880859 c 9.8e-5,-0.240869 -0.16446,-0.450601 -0.398437,-0.507812 l -6.53711,-1.607422 c -0.05047,-0.0122 -0.102471,-0.0168 -0.154297,-0.01367 z" />
  <path
     d="m 26.703125,29.751953 a 0.52255223,0.52255223 0 0 0 -0.109375,0.01367 l -6.537109,1.607422 a 0.52255223,0.52255223 0 0 0 -0.396485,0.507812 V 42.53125 A 0.52255223,0.52255223 0 0 0 20.412109,43 l 6.53711,-3.214844 a 0.52255223,0.52255223 0 0 0 0.292969,-0.46875 v -9.042968 a 0.52255223,0.52255223 0 0 0 -0.539063,-0.521485 z m -0.505859,1.1875 v 8.050781 l -5.492188,2.701172 v -9.402344 z" />
  <path
     d="m 20.173828,28.527344 a 0.52255223,0.52255223 0 0 0 -0.08789,0.0078 l -6.53711,1.22461 a 0.52255223,0.52255223 0 0 0 -0.02734,1.021484 l 6.535157,1.605469 a 0.52255223,0.52255223 0 0 0 0.25,0 L 26.84375,30.78125 a 0.52255223,0.52255223 0 0 0 -0.0293,-1.021484 l -6.535156,-1.22461 a 0.52255223,0.52255223 0 0 0 -0.105469,-0.0078 z m 0.0098,1.052734 4.064453,0.761719 -4.066406,1 -4.066407,-1 z" />
</svg>
